<svg xmlns="http://www.w3.org/2000/svg" xmlns:xlink="http://www.w3.org/1999/xlink" fill="none" version="1.1" width="49.316162109375" height="49.316162109375" viewBox="0 0 49.316162109375 49.316162109375"><g><g transform="matrix(0.7071067690849304,0.7071067690849304,-0.7071067690849304,0.7071067690849304,7.222185586922592,-17.43589737511354)"><rect x="24.658082962036133" y="0" width="34.871795654296875" height="34.871795654296875" rx="2.0512821674346924" fill="#FF7B00" fill-opacity="0.05000000074505806"/><rect x="25.658082962036133" y="1" width="32.871795654296875" height="32.871795654296875" rx="1.0512821674346924" fill-opacity="0" stroke-opacity="1" stroke="#F1821A" fill="none" stroke-width="2"/></g><g transform="matrix(0.7071067690849304,0.7071067690849304,-0.7071067690849304,0.7071067690849304,16.410417192084424,-13.594813454961695)"><path d="M39.3346005859375,29.26271875L32.8208005859375,22.74894875L26.3070405859375,29.26271875C26.0960505859375,29.47371875,25.7526105859375,29.47371875,25.5404435859375,29.26271875L24.7738435859375,28.49611875C24.5628528859375,28.285118750000002,24.5628528859375,27.94171875,24.7738435859375,27.72951875L31.2887705859375,21.216918749999998L24.7738435859375,14.70315875C24.5628528859375,14.49216875,24.5628528859375,14.14872875,24.7738435859375,13.93656175L25.5404435859375,13.16996175C25.7514305859375,12.95897105,26.0948805859375,12.95897105,26.3070405859375,13.16996175L32.8208005859375,19.68371875L39.3346005859375,13.16996175C39.5456005859375,12.95897115,39.8890005859375,12.95897115,40.1012005859375,13.16996175L40.8678005859375,13.93656175C41.0788005859375,14.14754875,41.0788005859375,14.49099875,40.8678005859375,14.70315875L34.3528305859375,21.216918749999998L40.866600585937505,27.73071875C41.0776005859375,27.94171875,41.0776005859375,28.285118750000002,40.866600585937505,28.497318749999998L40.1000005859375,29.26391875C39.8902005859375,29.47491875,39.5456005859375,29.47491875,39.3346005859375,29.26271875Z" fill="#F1821A" fill-opacity="1"/></g></g></svg>