<svg xmlns="http://www.w3.org/2000/svg" xmlns:xlink="http://www.w3.org/1999/xlink" fill="none" version="1.1" width="49.316162109375" height="49.316162109375" viewBox="0 0 49.316162109375 49.316162109375"><g><g transform="matrix(0.7071067690849304,0.7071067690849304,-0.7071067690849304,0.7071067690849304,7.222185586922592,-17.43589737511354)"><rect x="24.658082962036133" y="0" width="34.871795654296875" height="34.871795654296875" rx="2.0512821674346924" fill="#FF7B00" fill-opacity="0.05000000074505806"/><rect x="25.658082962036133" y="1" width="32.871795654296875" height="32.871795654296875" rx="1.0512821674346924" fill-opacity="0" stroke-opacity="1" stroke="#F1821A" fill="none" stroke-width="2"/></g><g transform="matrix(0,1,-1,0,49.23095703125,-16.410400390625)"><path d="M47.5396787109375,32.661278320312505L41.0258787109375,26.1475083203125L34.5121187109375,32.661278320312505C34.3011287109375,32.8722783203125,33.957688710937504,32.8722783203125,33.7455217109375,32.661278320312505L32.9789217109375,31.8946783203125C32.7679310109375,31.683678320312502,32.7679310109375,31.3402783203125,32.9789217109375,31.1280783203125L39.4938487109375,24.615478320312498L32.9789217109375,18.1017183203125C32.7679310109375,17.8907283203125,32.7679310109375,17.5472883203125,32.9789217109375,17.3351213203125L33.7455217109375,16.5685213203125C33.9565087109375,16.3575306203125,34.2999587109375,16.3575306203125,34.5121187109375,16.5685213203125L41.0258787109375,23.0822783203125L47.5396787109375,16.5685213203125C47.7506787109375,16.3575307203125,48.0940787109375,16.3575307203125,48.3062787109375,16.5685213203125L49.0728787109375,17.3351213203125C49.2838787109375,17.5461083203125,49.2838787109375,17.8895583203125,49.0728787109375,18.1017183203125L42.5579087109375,24.615478320312498L49.071678710937505,31.1292783203125C49.2826787109375,31.3402783203125,49.2826787109375,31.683678320312502,49.071678710937505,31.895878320312498L48.3050787109375,32.6624783203125C48.0952787109375,32.8734783203125,47.7506787109375,32.8734783203125,47.5396787109375,32.661278320312505Z" fill="#F1821A" fill-opacity="1"/></g></g></svg>