<svg class="icon" width="16" height="16" viewBox="0 0 1024 1024" xmlns="http://www.w3.org/2000/svg"><path fill="#515151" d="M866.462 295.385c0-43.323-35.447-78.77-78.77-78.77H498.215c-35.446 0-68.923-39.384-68.923-39.384l-49.23-59.077s-23.631-39.385-68.924-39.385h-74.83c-43.323 0-78.77 35.446-78.77 78.77v177.23h708.924v-39.384zm57.107 118.153H100.431c-39.385 0-68.923 37.416-59.077 74.831L153.6 901.908c7.877 25.6 31.508 43.323 59.077 43.323h600.615c27.57 0 53.17-17.723 59.077-43.323l112.246-413.539c7.877-37.415-21.661-74.83-61.046-74.83z"/></svg>